<svg id="Слой_1" xmlns="http://www.w3.org/2000/svg" viewBox="0 0 122.7 137.2"><style>.st0{fill:#F57F20;}</style><path class="st0" d="M51.4 76.9c-13 17.9-15.8 31-20.2 29.8-3.4-1-1.8-3.9-10.9-6-8.7-2-17.7 5.2-19.5 13.8-2.5 8.5 1.5 19.2 10.5 21.8 8.9 3.2 19.4-2 22.6-10.8 4.6-10.1 6.9-23.4 21.7-34.9l11.3-8.8 39.3-55.4c4.4-7.2 7-16.7 1.3-25.8L51.4 76.9zM9.3 110.3c7.6-7.5 20.9-2.9 20.9 7.1.5 9.3-10.7 17.7-19.1 12.4-7.1-3.6-7-14.3-1.8-19.5z"/><path class="st0" d="M71.4 76.4c13 18 15.8 31.1 20.2 29.8 3.5-1 1.8-3.9 10.9-6 8.8-2 17.7 5.2 19.5 13.9 2.5 8.5-1.6 19.1-10.5 21.8-8.9 3.2-19.4-2.1-22.6-10.9-4.5-10.1-6.9-23.5-21.6-34.9L56 81.3 16.8 25.8c-4.4-7.2-7-16.7-1.3-25.8l55.9 76.4zm42 33.5c-7.5-7.6-20.9-3-20.9 7.1-.6 9.3 10.7 17.7 19.1 12.5 7-3.7 7-14.4 1.8-19.6z"/></svg>